<?xml version="1.0" standalone="no"?>
<!DOCTYPE svg PUBLIC "-//W3C//DTD SVG 20010904//EN"
 "http://www.w3.org/TR/2001/REC-SVG-20010904/DTD/svg10.dtd">
<svg version="1.0" xmlns="http://www.w3.org/2000/svg"
 width="280.000000pt" height="300.000000pt" viewBox="0 0 280.000000 300.000000"
 preserveAspectRatio="xMidYMid meet">

<g transform="translate(0.000000,300.000000) scale(0.100000,-0.100000)"
fill="#000000" stroke="none">
<path d="M1250 2994 c132 -12 252 -27 305 -39 274 -64 451 -203 560 -439 54
-116 69 -186 69 -321 0 -145 -22 -232 -93 -380 -118 -242 -292 -420 -526 -535
-206 -102 -395 -144 -650 -144 -134 0 -173 3 -240 21 -182 50 -297 113 -411
227 -121 121 -164 220 -164 380 0 74 6 107 29 176 16 47 28 86 26 88 -2 2 -21
-27 -44 -65 -95 -162 -129 -368 -100 -608 32 -261 142 -472 345 -665 104 -98
198 -164 337 -236 l99 -51 -80 -94 c-43 -52 -126 -143 -183 -203 l-104 -109
95 7 c245 18 532 120 698 246 l54 41 76 -6 c107 -9 304 11 438 45 540 136 949
610 1005 1165 50 493 -195 980 -633 1261 -241 155 -502 233 -798 239 -85 2
-135 1 -110 -1z"/>
<path d="M1115 2963 c-401 -52 -717 -262 -866 -576 -27 -58 -39 -127 -21 -127
5 0 35 16 68 36 170 105 231 138 324 175 246 99 530 114 812 43 249 -63 458
-179 643 -356 38 -38 71 -68 72 -68 9 0 1 171 -11 232 -32 167 -93 283 -206
397 -165 165 -407 254 -683 250 -56 -1 -115 -4 -132 -6z"/>
<path d="M635 2279 c-62 -9 -230 -57 -223 -64 2 -2 31 3 63 12 87 24 242 21
326 -6 258 -82 433 -354 455 -706 6 -89 -6 -243 -22 -298 -7 -21 2 -20 136 20
143 42 269 103 322 156 31 32 -3 188 -72 333 -142 294 -422 499 -750 549 -104
16 -145 17 -235 4z"/>
<path d="M482 2215 c-126 -28 -232 -93 -293 -181 -110 -160 -98 -426 26 -569
l26 -30 22 30 c51 69 156 164 216 195 106 53 198 72 346 72 143 0 242 -20 337
-67 28 -14 53 -23 56 -21 10 10 -31 152 -63 221 -65 141 -164 243 -296 305
-122 56 -251 72 -377 45z"/>
</g>
</svg>
