<?xml version="1.0" standalone="no"?>
<!DOCTYPE svg PUBLIC "-//W3C//DTD SVG 20010904//EN"
 "http://www.w3.org/TR/2001/REC-SVG-20010904/DTD/svg10.dtd">
<svg version="1.0" xmlns="http://www.w3.org/2000/svg"
 width="244.000000pt" height="244.000000pt" viewBox="0 0 244.000000 244.000000"
 preserveAspectRatio="xMidYMid meet">

<g transform="translate(0.000000,244.000000) scale(0.100000,-0.100000)"
fill="#000000" stroke="none">
<path d="M0 1220 l0 -1180 130 0 130 0 0 45 0 45 -70 0 -70 0 0 1090 0 1090
70 0 70 0 0 45 0 45 -130 0 -130 0 0 -1180z"/>
<path d="M2170 2355 l0 -45 75 0 75 0 0 -1085 0 -1085 -44 0 c-24 0 -58 -3
-75 -6 -29 -6 -31 -9 -31 -50 l0 -44 130 0 130 0 0 1180 0 1180 -130 0 -130 0
0 -45z"/>
<path d="M867 1626 c-62 -26 -75 -34 -124 -80 l-33 -30 0 57 0 57 -130 0 -130
0 0 -420 0 -420 134 0 135 0 3 278 3 277 27 42 c36 55 91 83 161 83 72 0 109
-14 138 -53 24 -32 24 -33 27 -329 l3 -298 135 0 134 0 0 268 c0 147 4 281 9
298 21 75 84 114 181 114 79 0 116 -20 141 -73 17 -38 19 -69 19 -324 l0 -283
141 0 141 0 -4 323 -3 322 -32 61 c-59 113 -136 149 -323 149 -117 0 -128 -2
-178 -28 -29 -15 -71 -44 -93 -64 -22 -20 -41 -34 -43 -32 -1 2 -12 18 -24 36
-13 18 -47 44 -80 60 -50 25 -70 28 -167 31 -98 2 -116 0 -168 -22z"/>
</g>
</svg>
