<?xml version="1.0" standalone="no"?>
<!DOCTYPE svg PUBLIC "-//W3C//DTD SVG 20010904//EN"
 "http://www.w3.org/TR/2001/REC-SVG-20010904/DTD/svg10.dtd">
<svg version="1.0" xmlns="http://www.w3.org/2000/svg"
 width="206.000000pt" height="244.000000pt" viewBox="0 0 206.000000 244.000000"
 preserveAspectRatio="xMidYMid meet">

<g transform="translate(0.000000,244.000000) scale(0.100000,-0.100000)"
fill="#000000" stroke="none">
<path d="M0 2420 c0 -19 7 -20 110 -20 l110 0 0 -25 c0 -25 -1 -25 -80 -25
l-80 0 0 -1130 0 -1130 80 0 c79 0 80 0 80 -25 l0 -25 -110 0 c-103 0 -110 -1
-110 -20 0 -20 7 -20 1030 -20 l1030 0 -2 1198 -3 1197 -2 -1177 -3 -1178
-110 0 c-109 0 -110 0 -110 24 0 27 28 36 114 36 l51 0 -3 1125 -2 1125 -80 0
c-79 0 -80 0 -80 25 l0 25 115 0 c108 0 115 1 115 20 0 20 -7 20 -1030 20
-1023 0 -1030 0 -1030 -20z m997 -794 c33 -16 63 -39 81 -65 l29 -40 34 35
c62 64 112 87 204 92 151 8 247 -41 296 -151 23 -51 24 -61 27 -379 l4 -328
-115 0 -116 0 -3 293 c-3 273 -4 294 -24 327 -26 44 -56 60 -119 60 -60 0
-106 -25 -132 -72 -16 -29 -18 -66 -21 -320 l-3 -288 -115 0 -114 0 0 285 c0
316 -6 352 -61 380 -72 38 -171 8 -213 -65 -20 -33 -21 -54 -24 -317 l-3 -283
-115 0 -114 0 0 420 0 420 110 0 110 0 0 -57 1 -58 20 28 c24 32 91 79 134 95
17 6 66 11 110 11 65 1 90 -4 132 -23z"/>
</g>
</svg>
