<?xml version="1.0" standalone="no"?>
<!DOCTYPE svg PUBLIC "-//W3C//DTD SVG 20010904//EN"
 "http://www.w3.org/TR/2001/REC-SVG-20010904/DTD/svg10.dtd">
<svg version="1.0" xmlns="http://www.w3.org/2000/svg"
 width="225.000000pt" height="225.000000pt" viewBox="0 0 225.000000 225.000000"
 preserveAspectRatio="xMidYMid meet">

<g transform="translate(0.000000,225.000000) scale(0.100000,-0.100000)"
fill="#000000" stroke="none">
<path d="M988 2240 c-376 -48 -709 -286 -873 -625 -80 -166 -108 -293 -108
-490 0 -142 19 -285 41 -307 5 -5 68 196 142 444 73 249 136 459 140 466 4 8
50 -60 118 -175 62 -103 116 -194 121 -201 6 -10 20 7 48 60 22 40 118 217
213 392 l174 319 44 -49 c255 -285 552 -869 768 -1509 41 -121 77 -227 80
-235 8 -21 103 83 172 189 169 259 222 590 143 891 -109 413 -441 727 -862
815 -88 19 -273 26 -361 15z"/>
<path d="M791 1340 l-214 -323 -51 95 c-28 52 -78 145 -111 206 -33 62 -62
112 -65 112 -3 0 -65 -161 -138 -358 l-133 -357 26 -60 c103 -231 338 -461
576 -561 260 -110 567 -121 815 -29 l42 16 -29 137 c-91 432 -203 806 -326
1097 -51 122 -134 286 -166 329 -12 17 -32 -10 -226 -304z"/>
</g>
</svg>
