<?xml version="1.0" standalone="no"?>
<!DOCTYPE svg PUBLIC "-//W3C//DTD SVG 20010904//EN"
 "http://www.w3.org/TR/2001/REC-SVG-20010904/DTD/svg10.dtd">
<svg version="1.0" xmlns="http://www.w3.org/2000/svg"
 width="480.000000pt" height="480.000000pt" viewBox="0 0 480.000000 480.000000"
 preserveAspectRatio="xMidYMid meet">

<g transform="translate(0.000000,480.000000) scale(0.100000,-0.100000)"
fill="#000000" stroke="none">
<path d="M603 2903 l3 -1298 23 -100 c58 -258 150 -440 300 -598 161 -168 376
-268 643 -297 63 -6 548 -10 1363 -10 l1265 0 0 400 0 400 -1212 3 -1213 3
-80 22 c-113 33 -269 111 -343 174 -120 102 -199 237 -232 399 -19 89 -20 145
-20 1147 l0 1052 -250 0 -251 0 4 -1297z"/>
<path d="M1535 4118 c19 -46 244 -585 499 -1198 l465 -1115 351 0 351 0 498
1195 498 1195 -295 3 c-163 1 -299 -1 -302 -5 -4 -5 -173 -407 -376 -895 -203
-489 -371 -888 -374 -888 -3 0 -172 402 -377 893 l-372 892 -300 3 -300 2 34
-82z"/>
</g>
</svg>
