<?xml version="1.0" standalone="no"?>
<!DOCTYPE svg PUBLIC "-//W3C//DTD SVG 20010904//EN"
 "http://www.w3.org/TR/2001/REC-SVG-20010904/DTD/svg10.dtd">
<svg version="1.0" xmlns="http://www.w3.org/2000/svg"
 width="512.000000pt" height="512.000000pt" viewBox="0 0 512.000000 512.000000"
 preserveAspectRatio="xMidYMid meet">

<g transform="translate(0.000000,512.000000) scale(0.100000,-0.100000)"
fill="#000000" stroke="none">
<path d="M2390 4473 c-17 -4 16 -15 110 -38 193 -45 190 -44 190 -57 0 -16
-162 -4 -284 21 -54 12 -106 21 -115 21 -21 -1 80 -54 192 -100 49 -21 89 -41
89 -46 1 -5 -19 -19 -43 -32 -41 -22 -51 -23 -134 -16 -159 14 -245 10 -295
-12 l-45 -20 84 -44 c92 -48 103 -63 116 -156 l7 -52 -39 -12 c-57 -18 -154
-75 -187 -108 l-28 -30 43 -6 c24 -3 78 -8 119 -11 81 -6 173 -29 202 -50 17
-11 10 -17 -64 -56 l-83 -44 116 -5 c64 -3 122 -10 130 -16 8 -6 97 -77 199
-156 199 -157 330 -284 379 -369 86 -151 71 -334 -42 -491 -113 -159 -254
-249 -481 -309 -66 -17 -143 -41 -172 -54 -218 -97 -406 -316 -470 -550 -25
-93 -30 -266 -9 -366 68 -339 335 -598 679 -658 320 -57 672 110 842 399 156
265 147 611 -22 872 -42 65 -164 198 -182 198 -5 0 -62 -32 -128 -72 -65 -39
-166 -94 -224 -121 l-104 -51 60 -20 c82 -28 142 -66 191 -119 227 -246 62
-646 -278 -674 -181 -15 -381 128 -420 301 -20 90 -8 204 29 279 52 105 120
160 285 230 399 169 466 206 580 316 192 184 301 423 322 701 9 120 -13 232
-66 339 -55 112 -150 210 -331 343 -204 150 -258 196 -275 236 -19 45 -6 77
34 86 15 3 114 9 218 13 167 5 195 4 223 -11 18 -9 42 -14 52 -11 19 6 90 82
90 95 0 4 -63 10 -140 14 -78 4 -148 10 -156 13 -41 15 25 23 209 23 216 0
213 -1 183 59 -31 59 -144 142 -154 112 -5 -14 -86 -14 -154 0 -46 10 -62 21
-118 78 -55 56 -81 73 -165 110 -162 72 -209 82 -385 86 -85 2 -166 1 -180 -2z
m675 -293 c17 -19 17 -20 -9 -31 -22 -10 -29 -10 -42 3 -14 14 -14 17 1 32 21
21 28 20 50 -4z"/>
<path d="M2200 3396 c-192 -41 -361 -144 -476 -290 -210 -266 -219 -646 -24
-924 54 -77 153 -170 217 -204 l43 -23 76 83 c77 84 158 147 252 197 28 16 52
31 52 35 0 4 -25 12 -55 19 -78 18 -188 75 -226 118 -55 64 -73 117 -74 218 0
82 3 96 33 157 38 77 92 130 171 167 47 22 70 26 141 26 72 0 94 -4 146 -28
73 -34 132 -92 171 -167 25 -49 28 -66 28 -150 0 -83 -3 -102 -27 -150 -15
-30 -48 -78 -73 -107 l-46 -52 53 15 c29 9 91 34 138 57 215 105 364 349 329
542 -15 86 -60 158 -158 255 -71 71 -102 94 -181 132 -52 26 -124 54 -160 63
-89 22 -268 28 -350 11z"/>
<path d="M1830 1910 c-197 -34 -395 -202 -455 -388 -10 -29 -15 -55 -12 -58 3
-3 55 10 115 30 81 26 303 76 338 76 2 0 6 21 10 48 11 76 51 193 84 245 16
26 30 50 30 52 0 7 -57 4 -110 -5z"/>
</g>
</svg>
