<?xml version="1.0" standalone="no"?>
<!DOCTYPE svg PUBLIC "-//W3C//DTD SVG 1.1//EN" "http://www.w3.org/Graphics/SVG/1.1/DTD/svg11.dtd" >
<svg xmlns="http://www.w3.org/2000/svg">
<metadata>Generated by IcoMoon</metadata>
<defs>
<font id="configurator" horiz-adv-x="1024">
<font-face units-per-em="1024" ascent="960" descent="-64" />
<missing-glyph horiz-adv-x="1024" />
<glyph unicode="&#x20;" horiz-adv-x="512" d="" />
<glyph unicode="&#xe900;" glyph-name="network-wired" horiz-adv-x="1280" d="M1280 432v32c0 17.68-14.32 32-32 32h-560v80h144c35.34 0 64 28.66 64 64v256c0 35.34-28.66 64-64 64h-384c-35.34 0-64-28.66-64-64v-256c0-35.34 28.66-64 64-64h144v-80h-560c-17.68 0-32-14.32-32-32v-32c0-17.68 14.32-32 32-32h208v-80h-112c-35.34 0-64-28.66-64-64v-256c0-35.34 28.66-64 64-64h320c35.34 0 64 28.66 64 64v256c0 35.34-28.66 64-64 64h-112v80h608v-80h-112c-35.34 0-64-28.66-64-64v-256c0-35.34 28.66-64 64-64h320c35.34 0 64 28.66 64 64v256c0 35.34-28.66 64-64 64h-112v80h208c17.68 0 32 14.32 32 32zM512 704v128h256v-128h-256zM384 64h-192v128h192v-128zM1088 64h-192v128h192v-128z" />
<glyph unicode="&#xe901;" glyph-name="server" d="M960 640h-896c-35.346 0-64 28.654-64 64v128c0 35.346 28.654 64 64 64h896c35.346 0 64-28.654 64-64v-128c0-35.346-28.654-64-64-64zM864 816c-26.51 0-48-21.49-48-48s21.49-48 48-48 48 21.49 48 48-21.49 48-48 48zM736 816c-26.51 0-48-21.49-48-48s21.49-48 48-48 48 21.49 48 48-21.49 48-48 48zM960 320h-896c-35.346 0-64 28.654-64 64v128c0 35.346 28.654 64 64 64h896c35.346 0 64-28.654 64-64v-128c0-35.346-28.654-64-64-64zM864 496c-26.51 0-48-21.49-48-48s21.49-48 48-48 48 21.49 48 48-21.49 48-48 48zM736 496c-26.51 0-48-21.49-48-48s21.49-48 48-48 48 21.49 48 48-21.49 48-48 48zM960 0h-896c-35.346 0-64 28.654-64 64v128c0 35.346 28.654 64 64 64h896c35.346 0 64-28.654 64-64v-128c0-35.346-28.654-64-64-64zM864 176c-26.51 0-48-21.49-48-48s21.49-48 48-48 48 21.49 48 48-21.49 48-48 48zM736 176c-26.51 0-48-21.49-48-48s21.49-48 48-48 48 21.49 48 48-21.49 48-48 48z" />
<glyph unicode="&#xe902;" glyph-name="cubes" d="M977.2 459.6l-193.2 72.4v217c0 30-18.6 56.8-46.8 67.4l-200 75c-16.2 6.2-34.2 6.2-50.6 0l-200-75c-28.2-10.6-46.8-37.4-46.8-67.4v-217l-193.2-72.4c-28-10.6-46.6-37.4-46.6-67.4v-220.2c0-27.2 15.4-52.2 39.8-64.4l200-100c20.2-10.2 44.2-10.2 64.4 0l207.8 104 207.8-104c20.2-10.2 44.2-10.2 64.4 0l200 100c24.4 12.2 39.8 37.2 39.8 64.4v220.2c0 30-18.6 56.8-46.8 67.4zM716 530.4l-170-63.8v136.4l170 74v-146.6zM308 751.8l204 76.4 204-76.4v-1.2l-204-82.8-204 82.8v1.2zM476 169.6l-170-85v158.2l170 77.6v-150.8zM476 393.6l-204-82.8-204 82.8v1.2l204 76.4 204-76.4v-1.2zM956 169.6l-170-85v158.2l170 77.6v-150.8zM956 393.6l-204-82.8-204 82.8v1.2l204 76.4 204-76.4v-1.2z" />
<glyph unicode="&#xe903;" glyph-name="globe" horiz-adv-x="992" d="M673 640c-29 178.6-97.4 304-177 304s-148-125.4-177-304h354zM304 448c0-44.4 2.4-87 6.6-128h370.6c4.2 41 6.6 83.6 6.6 128s-2.4 87-6.6 128h-370.6c-4.2-41-6.6-83.6-6.6-128zM953.4 640c-57.2 135.8-173 240.8-316 283.2 48.8-67.6 82.4-169.4 100-283.2h216zM354.4 923.2c-142.8-42.4-258.8-147.4-315.8-283.2h216c17.4 113.8 51 215.6 99.8 283.2zM974.8 576h-229.4c4.2-42 6.6-85 6.6-128s-2.4-86-6.6-128h229.2c11 41 17.2 83.6 17.2 128s-6.2 87-17 128zM240 448c0 43 2.4 86 6.6 128h-229.4c-10.8-41-17.2-83.6-17.2-128s6.4-87 17.2-128h229.2c-4 42-6.4 85-6.4 128zM319 256c29-178.6 97.4-304 177-304s148 125.4 177 304h-354zM637.6-27.2c142.8 42.4 258.8 147.4 316 283.2h-216c-17.6-113.8-51.2-215.6-100-283.2zM38.6 256c57.2-135.8 173-240.8 316-283.2-48.8 67.6-82.4 169.4-100 283.2h-216z" />
<glyph unicode="&#xe904;" glyph-name="ip-lock" horiz-adv-x="1019" d="M412.93 939.853c-19.647-3.83-37.297-8.825-49.119-13.986-11.655-5.162-27.14-13.154-33.8-17.649-3.996-2.664-7.493-4.829-7.992-4.829-1.832 0-20.313-15.152-30.637-25.309-17.15-16.484-28.139-30.137-39.461-48.786-5.495-9.324-18.648-37.796-21.313-46.621-1.499-5.495-3.663-11.822-4.496-14.153-0.999-2.331-2.331-8.658-3.164-14.153-0.666-5.495-2.165-14.486-2.997-19.98-1.166-6.161-1.832-45.289-1.832-102.733 0-51.117-0.5-92.909-1.166-92.909-0.833-0.167-18.981-0.333-40.46-0.666-39.461-0.333-41.959-0.833-56.445-7.493-8.658-3.996-24.143-19.814-28.639-29.305l-3.996-8.325v-251.421c0-245.26 0-251.754 3.164-258.914 6.993-15.818 21.646-29.471 38.462-35.299 7.659-2.831 29.138-2.997 379.296-2.997 401.108 0 371.304-0.666 388.953 7.992 8.492 4.163 20.813 17.483 26.141 28.306l4.829 9.491v502.842l-4.662 8.658c-5.162 9.824-18.482 23.977-26.141 27.973-14.486 7.493-32.135 9.158-98.237 9.158-0.999 0-1.665 33.967-1.665 89.579 0 80.255-0.333 91.577-3.33 111.058-4.329 28.139-8.991 45.123-17.483 63.272-2.331 4.662-4.163 9.158-4.163 9.824 0 0.5-3.497 6.827-7.826 13.986-21.313 35.465-48.786 63.605-80.754 82.753-4.163 2.498-19.814 10.989-22.811 12.321-1.499 0.666-5.162 2.498-8.159 3.996-3.164 1.499-6.827 2.831-8.492 2.831-1.499 0-4.329 1.166-6.161 2.498-1.665 1.332-4.662 2.331-6.494 2.498-1.832 0-6.66 0.999-10.823 2.331-20.98 6.827-34.799 7.659-114.888 7.493-67.767-0.167-79.422-0.666-93.242-3.33zM597.084 845.445c32.135-9.158 58.776-27.307 77.424-52.782 14.486-19.98 20.147-32.468 25.475-56.944 2.331-10.157 2.664-26.474 2.664-104.398 0-72.929-0.5-92.576-1.998-92.576-2.331 0-384.458 0-386.289 0-0.833 0-1.332 42.459-1.332 94.241 0 89.413 0.167 95.074 3.497 108.394 1.832 7.826 3.996 15.318 4.662 16.817 0.833 1.665 3.164 6.66 5.328 11.156 6.494 14.153 14.985 26.141 26.308 37.463 20.98 20.813 36.131 29.971 63.438 37.796 15.818 4.496 30.637 5.162 100.735 4.662 62.439-0.5 69.266-0.833 80.088-3.83zM651.53 384.229l59.442-59.608v-167.836l-59.109-59.275-59.109-59.109-168.835-0.999-119.217 119.217v168.169l119.050 119.050h168.169l59.608-59.608zM391.285 354.758c-1.665-4.496-2.165-223.781-0.5-228.277 0.666-1.832 5.828-2.331 26.474-2.331h25.642l-0.333 117.052-0.5 116.886-49.119 0.999-1.665-4.329zM487.024 356.922c-0.5-1.166-0.666-53.781-0.5-117.052l0.5-114.888 50.784-0.999v35.465c0 19.481 0.5 36.964 0.999 38.962 0.833 3.33 2.331 3.497 25.475 4.496 40.627 1.832 59.275 9.824 78.090 33.8 2.831 3.83 5.328 7.659 5.328 8.492 0 0.999 0.999 3.83 2.331 6.494 7.326 14.819 5.495 52.948-3.164 68.6-5.994 10.989-17.982 22.145-29.804 27.64-18.482 8.825-35.632 10.989-84.584 10.989-34.3 0-44.956-0.5-45.456-1.998zM568.278 315.463c16.817-1.832 25.808-5.495 31.303-13.487 3.164-4.496 3.83-7.326 3.83-18.648 0-15.485-2.498-21.646-11.322-28.805-8.159-6.327-17.816-8.825-36.131-8.825-13.154 0-16.317 0.5-17.15 2.664-0.5 1.499-0.999 16.317-0.999 33.134 0 25.642 0.5 30.97 2.664 33.134 2.831 2.997 5.661 2.997 27.806 0.833z" />
<glyph unicode="&#xe905;" glyph-name="openvpn" d="M512 944.427c-282.24 0-512-227.499-512-507.52 0-186.027 100.608-347.904 251.563-435.413l32.853 216.576c-48.503 52.907-78.356 123.6-78.762 201.262v0.082c0 166.272 135.68 301.909 304.213 301.909 168.448 0 304.043-135.637 304.043-301.909 0-78.805-30.592-148.821-78.763-203.52l32.853-216.661c153.173 87.509 256 251.691 256 437.675 0 280.021-229.76 507.52-512 507.52zM509.867 596.437c-0.127 0-0.277 0.001-0.427 0.001-89.214 0-161.536-72.322-161.536-161.536 0-0.135 0-0.27 0-0.406v0.021c-0.003-0.34-0.004-0.743-0.004-1.146 0-68.534 43.227-126.971 103.904-149.535l1.103-0.359-63.36-332.544h240.64l-61.227 332.587c59.093 24.064 102.827 80.981 102.827 150.997 0 0.114 0 0.249 0 0.384 0 89.214-72.322 161.536-161.536 161.536-0.135 0-0.27 0-0.405 0h0.021z" />
<glyph unicode="&#xe906;" glyph-name="file-certificate" d="M1009.98 749.98l-195.8 196c-15.42 15.42-32 14-46.2 14v-256h256c0 15.060 1.28 30.7-14 46zM703.98 687.98v272h-399.98c-26.6 0-48-21.4-48-48v-217.98c36.6 10 39.16 10 52.9 10 32.46 0 64.2-13.34 87.060-36.6 17.44-19.18 8.82-13.96 36.56-21.52 42.14-11.5 75.28-45.060 86.46-87.6 6.22-26.4 1.2-17.32 21.5-37.98 30.5-31.020 42.52-76.52 31.4-118.72-7.5-26.46-7.42-16.020 0-44.24 11.14-42.22-0.9-87.7-31.38-118.74-19.28-18.72-14.080-9.76-21.5-37.98-9.78-37.18-36.32-67.5-71-82.24v-182.38h527.98c26.6 0 48 21.4 48 48v655.98h-272c-26.4 0-48 21.6-48 48zM494.84 283.44c14.8 15.060 20.58 37 15.16 57.58-10.86 41.3-10.88 35.48 0 76.84 5.42 20.56-0.36 42.52-15.16 57.58-29.72 30.24-26.86 25.22-37.74 66.54-5.42 20.56-21.2 36.64-41.42 42.14-40.56 11.060-35.68 8.2-65.38 38.42-14.8 15.060-36.36 20.94-56.56 15.42-40.64-11.080-34.92-11.060-75.5 0-20.2 5.52-41.76-0.38-56.56-15.42-29.82-30.36-25-27.4-65.38-38.42-20.22-5.52-36-21.58-41.42-42.14-10.92-41.48-8-36.26-37.74-66.54-14.8-15.060-20.58-37-15.16-57.58 10.9-41.42 10.84-35.58 0-76.82-5.42-20.56 0.36-42.52 15.16-57.58 29.7-30.22 26.86-25.22 37.74-66.54 5.42-20.56 21.2-36.64 41.42-42.14 28.62-7.8 23.040-5.94 31.68-10v-228.78l128 64 128-64v228.76c8.62 4.040 3.040 2.2 31.68 10 20.22 5.52 36 21.58 41.42 42.14 10.94 41.48 8.020 36.26 37.76 66.54zM256 255.98c-70.68 0-128 57.3-128 128s57.32 128 128 128 128-57.3 128-128-57.32-128-128-128z" />
<glyph unicode="&#xe907;" glyph-name="phone-office" horiz-adv-x="1152" d="M256 128h128c35.34 0 64 28.66 64 64v704c0 35.34-28.66 64-64 64h-128c-35.34 0-64-28.66-64-64v-704c0-35.34 28.66-64 64-64zM1056 896h-544v-704c0-70.58-57.42-128-128-128h-128c-70.58 0-128 57.42-128 128v704h-32c-53.020 0-96-42.98-96-96v-768c0-53.020 42.98-96 96-96h960c53.020 0 96 42.98 96 96v768c0 53.020-42.98 96-96 96zM768 96c0-17.68-14.32-32-32-32h-64c-17.68 0-32 14.32-32 32v64c0 17.68 14.32 32 32 32h64c17.68 0 32-14.32 32-32v-64zM768 352c0-17.68-14.32-32-32-32h-64c-17.68 0-32 14.32-32 32v64c0 17.68 14.32 32 32 32h64c17.68 0 32-14.32 32-32v-64zM1024 96c0-17.68-14.32-32-32-32h-64c-17.68 0-32 14.32-32 32v64c0 17.68 14.32 32 32 32h64c17.68 0 32-14.32 32-32v-64zM1024 352c0-17.68-14.32-32-32-32h-64c-17.68 0-32 14.32-32 32v64c0 17.68 14.32 32 32 32h64c17.68 0 32-14.32 32-32v-64zM1024 576h-384v192h384v-192z" />
<glyph unicode="&#xe908;" glyph-name="envelope" d="M1004.6 578.4c7.8 6.2 19.4 0.4 19.4-9.4v-409c0-53-43-96-96-96h-832c-53 0-96 43-96 96v408.8c0 10 11.4 15.6 19.4 9.4 44.8-34.8 104.2-79 308.2-227.2 42.2-30.8 113.4-95.6 184.4-95.2 71.4-0.6 144 65.6 184.6 95.2 204 148.2 263.2 192.6 308 227.4zM512 320c46.4-0.8 113.2 58.4 146.8 82.8 265.4 192.6 285.6 209.4 346.8 257.4 11.6 9 18.4 23 18.4 37.8v38c0 53-43 96-96 96h-832c-53 0-96-43-96-96v-38c0-14.8 6.8-28.6 18.4-37.8 61.2-47.8 81.4-64.8 346.8-257.4 33.6-24.4 100.4-83.6 146.8-82.8z" />
<glyph unicode="&#xe909;" glyph-name="network-time" d="M632 720h-80v80h-80v-160h160zM944 176v160h-392v66.87c135.51 19.47 240 136.318 240 277.13 0 154.392-125.608 280-280 280s-280-125.608-280-280c0-140.812 104.49-257.662 240-277.13v-66.87h-392v-160h-80v-240h240v240h-80v80h312v-80h-80v-240h240v240h-80v80h312v-80h-80v-240h240v240zM312 680c0 110.28 89.72 200 200 200 110.282 0 200-89.72 200-200s-89.718-200-200-200c-110.28 0-200 89.72-200 200zM160 16h-80v80h80zM552 16h-80v80h80zM944 16h-80v80h80z" />
<glyph unicode="&#xe90a;" glyph-name="plus" horiz-adv-x="896" d="M832 544h-288v288c0 35.34-28.66 64-64 64h-64c-35.34 0-64-28.66-64-64v-288h-288c-35.34 0-64-28.66-64-64v-64c0-35.34 28.66-64 64-64h288v-288c0-35.34 28.66-64 64-64h64c35.34 0 64 28.66 64 64v288h288c35.34 0 64 28.66 64 64v64c0 35.34-28.66 64-64 64z" />
<glyph unicode="&#xe90b;" glyph-name="trash-alt" horiz-adv-x="896" d="M64 32c0-53.019 42.981-96 96-96v0h576c53.019 0 96 42.981 96 96v0 672h-768zM608 544c0 17.673 14.327 32 32 32s32-14.327 32-32v0-448c0-17.673-14.327-32-32-32s-32 14.327-32 32v0zM416 544c0 17.673 14.327 32 32 32s32-14.327 32-32v0-448c0-17.673-14.327-32-32-32s-32 14.327-32 32v0zM224 544c0 17.673 14.327 32 32 32s32-14.327 32-32v0-448c0-17.673-14.327-32-32-32s-32 14.327-32 32v0zM864 896h-240l-18.8 37.4c-8.044 15.894-24.255 26.6-42.966 26.6-0.012 0-0.024 0-0.036 0h-228.598c-0.054 0-0.118 0-0.182 0-18.614 0-34.725-10.721-42.493-26.325l-0.124-0.276-18.8-37.4h-240c-17.673 0-32-14.327-32-32v0-64c0-17.673 14.327-32 32-32v0h832c17.673 0 32 14.327 32 32v0 64c0 17.673-14.327 32-32 32v0z" />
<glyph unicode="&#xe90c;" glyph-name="config" d="M976.485 401.826h-37.139c-10.049 0-21.767 9.094-25.587 19.862-3.541 9.98-7.702 19.914-12.35 29.532-4.952 10.229-3.129 24.87 3.976 31.975l26.436 26.44c18.522 18.52 18.522 48.66 0 67.182l-42.911 42.911c-8.975 8.973-20.901 13.913-33.593 13.913-12.687 0-24.616-4.94-33.589-13.913l-26.44-26.44c-4.245-4.243-11.314-6.777-18.9-6.777-4.75 0-9.271 0.971-13.065 2.808-9.622 4.656-19.571 8.82-29.574 12.378-10.764 3.821-19.857 15.538-19.857 25.584v37.143c0 26.191-21.31 47.504-47.506 47.504h-60.698c-26.198 0-47.506-21.313-47.506-47.504v-37.143c0-10.049-9.092-21.769-19.857-25.584-9.989-3.548-19.935-7.702-29.546-12.347-3.731-1.804-8.361-2.798-13.037-2.798-7.617 0-14.705 2.539-18.96 6.793l-26.396 26.386c-8.973 8.973-20.903 13.913-33.596 13.913-12.689 0-24.618-4.94-33.591-13.908l-42.954-42.928c-8.978-8.968-13.918-20.896-13.924-33.586 0-12.689 4.94-24.618 13.913-33.591l26.44-26.44c7.11-7.11 8.937-21.762 3.986-31.997-4.64-9.601-8.794-19.53-12.335-29.515-3.821-10.762-15.533-19.857-25.584-19.857h-37.138c-26.196 0-47.504-21.313-47.504-47.504v-60.7c0-26.191 21.308-47.504 47.504-47.504h37.138c10.051 0 21.769-9.089 25.589-19.852 3.536-9.958 7.69-19.892 12.345-29.515 4.947-10.229 3.115-24.882-4-31.997l-26.44-26.438c-18.52-18.52-18.52-48.66 0-67.181l42.971-42.976c8.973-8.973 20.903-13.913 33.591-13.913s24.618 4.94 33.591 13.913l26.44 26.438c4.254 4.255 11.338 6.793 18.948 6.793 4.745 0 9.252-0.966 13.037-2.798 9.618-4.649 19.549-8.804 29.522-12.345 10.76-3.821 19.857-15.538 19.857-25.589v-37.143c0-26.191 21.31-47.503 47.503-47.503h60.702c26.195 0 47.503 21.311 47.503 47.503v37.143c0 10.051 9.096 21.769 19.857 25.584 9.992 3.548 19.938 7.702 29.55 12.345 3.729 1.806 8.359 2.798 13.035 2.798 7.617 0 14.702-2.539 18.957-6.793l26.436-26.438c8.975-8.973 20.897-13.913 33.586-13.913 12.694 0 24.623 4.945 33.596 13.924l42.932 42.954c18.508 18.526 18.508 48.665-0.007 67.187l-26.415 26.428c-7.105 7.103-8.928 21.756-3.983 31.992 4.645 9.606 8.794 19.545 12.34 29.531 3.817 10.762 15.531 19.852 25.581 19.852h37.136c26.198 0 47.506 21.313 47.506 47.504v60.7c-0.017 26.208-21.33 47.518-47.52 47.518zM775.251 323.971c0-76.762-62.454-139.215-139.217-139.215-76.759 0-139.213 62.453-139.213 139.215 0 76.761 62.454 139.213 139.213 139.213 76.762 0 139.217-62.447 139.217-139.213zM348.207 706.602c0.899 2.529 3.902 4.661 5.316 4.661h18.602c17.461 0 31.67 14.203 31.67 31.67v30.35c0 17.465-14.208 31.67-31.67 31.67h-18.596c-1.414 0-4.418 2.132-5.314 4.661-1.868 5.263-4.059 10.503-6.513 15.566-1.145 2.37-0.538 5.944 0.454 6.936l13.223 13.222c12.345 12.352 12.345 32.441 0 44.786l-21.456 21.456c-5.98 5.98-13.936 9.273-22.395 9.273-8.461 0-16.416-3.3-22.396-9.278l-13.216-13.218c-0.412-0.412-1.827-1.071-3.859-1.071-1.156 0-2.275 0.221-3.077 0.612-5.071 2.455-10.308 4.645-15.566 6.508-2.534 0.897-4.666 3.907-4.666 5.316v18.6c0 17.467-14.208 31.67-31.67 31.67h-30.35c-17.461 0-31.67-14.203-31.67-31.67v-18.6c0-1.414-2.132-4.412-4.661-5.311-5.283-1.873-10.525-4.069-15.576-6.513-0.797-0.385-1.922-0.607-3.077-0.607-2.032 0-3.441 0.654-3.852 1.066l-13.223 13.218c-5.98 5.98-13.934 9.273-22.395 9.273s-16.411-3.293-22.389-9.273l-21.46-21.456c-12.345-12.352-12.345-32.446 0-44.791l13.216-13.216c0.992-0.992 1.604-4.566 0.459-6.931-2.455-5.068-4.645-10.308-6.513-15.571-0.897-2.529-3.907-4.666-5.316-4.666h-18.6c-17.46 0-31.67-14.203-31.67-31.67v-30.35c0-17.461 14.205-31.67 31.664-31.67h18.602c1.414 0 4.418-2.132 5.316-4.661 1.868-5.268 4.059-10.503 6.513-15.566 1.145-2.37 0.538-5.942-0.454-6.936l-13.223-13.223c-5.98-5.98-9.273-13.936-9.273-22.395 0-8.461 3.293-16.411 9.278-22.396l21.456-21.451c5.98-5.98 13.934-9.273 22.395-9.273s16.411 3.293 22.389 9.273l13.223 13.222c0.411 0.412 1.827 1.071 3.859 1.071 1.156 0 2.275-0.221 3.077-0.611 5.073-2.455 10.31-4.645 15.566-6.508 2.534-0.897 4.666-3.905 4.666-5.314v-18.602c0-17.465 14.21-31.67 31.67-31.67h30.35c17.461 0 31.67 14.203 31.67 31.67v18.596c0 1.414 2.132 4.412 4.661 5.309 5.263 1.868 10.498 4.059 15.566 6.513 0.802 0.392 1.927 0.612 3.082 0.612 2.032 0 3.441-0.659 3.859-1.071l13.223-13.222c5.98-5.98 13.934-9.273 22.395-9.273s16.411 3.293 22.389 9.273l21.456 21.455c12.345 12.352 12.345 32.441 0 44.786l-13.216 13.216c-0.994 0.992-1.606 4.571-0.461 6.936 2.456 5.095 4.645 10.331 6.508 15.588zM263.587 758.108c0-34.014-27.673-61.692-61.687-61.692-34.019 0-61.692 27.673-61.692 61.692s27.673 61.692 61.692 61.692c34.012 0 61.687-27.675 61.687-61.692z" />
<glyph unicode="&#xe90d;" glyph-name="pen" d="M581.48 773.52l256.040-256.040-555.98-555.98-228.28-25.2c-30.56-3.38-56.38 22.46-52.98 53.020l25.4 228.44 555.8 555.76zM995.88 811.64l-120.22 120.22c-37.5 37.5-98.32 37.5-135.82 0l-113.1-113.1 256.040-256.040 113.1 113.1c37.5 37.52 37.5 98.32 0 135.82z" />
<glyph unicode="&#xe90e;" glyph-name="cogs" horiz-adv-x="1280" d="M1024.2 578l-16.4-28.6c-6-10.6-18.8-15-30.2-10.8-23.6 8.8-45.2 21.4-64.2 37.2-9.2 7.6-11.6 21-5.6 31.4l16.4 28.6c-13.8 16-24.6 34.6-31.8 54.8h-33c-12 0-22.4 8.6-24.4 20.6-4 24-4.2 49.2 0 74.2 2 12 12.4 20.8 24.4 20.8h33c7.2 20.2 18 38.8 31.8 54.8l-16.4 28.6c-6 10.4-3.8 23.8 5.6 31.4 19 15.8 40.8 28.4 64.2 37.2 11.4 4.2 24.2-0.2 30.2-10.8l16.4-28.6c21 3.8 42.4 3.8 63.4 0l16.4 28.6c6 10.6 18.8 15 30.2 10.8 23.6-8.8 45.2-21.4 64.2-37.2 9.2-7.6 11.6-21 5.6-31.4l-16.4-28.6c13.8-16 24.6-34.6 31.8-54.8h33c12 0 22.4-8.6 24.4-20.6 4-24 4.2-49.2 0-74.2-2-12-12.4-20.8-24.4-20.8h-33c-7.2-20.2-18-38.8-31.8-54.8l16.4-28.6c6-10.4 3.8-23.8-5.6-31.4-19-15.8-40.8-28.4-64.2-37.2-11.4-4.2-24.2 0.2-30.2 10.8l-16.4 28.6c-20.8-3.8-42.4-3.8-63.4 0zM1003.2 695.6c77-59.2 164.8 28.6 105.6 105.6-77 59.4-164.8-28.6-105.6-105.6zM772.6 387.8l67.4-33.6c20.2-11.6 29-36.2 21-58.2-17.8-48.4-52.8-92.8-85.2-131.6-14.8-17.8-40.4-22.2-60.6-10.6l-58.2 33.6c-32-27.4-69.2-49.2-109.8-63.4v-67.2c0-23.2-16.6-43.2-39.4-47.2-49.2-8.4-100.8-8.8-151.8 0-23 4-40 23.8-40 47.2v67.2c-40.6 14.4-77.8 36-109.8 63.4l-58.2-33.4c-20-11.6-45.8-7.2-60.6 10.6-32.4 38.8-66.6 83.2-84.4 131.4-8 21.8 0.8 46.4 21 58.2l66.6 33.6c-7.8 41.8-7.8 84.8 0 126.8l-66.6 33.8c-20.2 11.6-29.2 36.2-21 58 17.8 48.4 52 92.8 84.4 131.6 14.8 17.8 40.4 22.2 60.6 10.6l58.2-33.6c32 27.4 69.2 49.2 109.8 63.4v67.4c0 23 16.4 43 39.2 47 49.2 8.4 101 8.8 152 0.2 23-4 40-23.8 40-47.2v-67.2c40.6-14.4 77.8-36 109.8-63.4l58.2 33.6c20 11.6 45.8 7.2 60.6-10.6 32.4-38.8 66.4-83.2 84.2-131.6 8-21.8 0.2-46.4-20-58.2l-67.4-33.6c7.8-42 7.8-85 0-127zM537.4 345.6c118.4 154-57.4 329.8-211.4 211.4-118.4-154 57.4-329.8 211.4-211.4zM1024.2-19.8l-16.4-28.6c-6-10.6-18.8-15-30.2-10.8-23.6 8.8-45.2 21.4-64.2 37.2-9.2 7.6-11.6 21-5.6 31.4l16.4 28.6c-13.8 16-24.6 34.6-31.8 54.8h-33c-12 0-22.4 8.6-24.4 20.6-4 24-4.2 49.2 0 74.2 2 12 12.4 20.8 24.4 20.8h33c7.2 20.2 18 38.8 31.8 54.8l-16.4 28.6c-6 10.4-3.8 23.8 5.6 31.4 19 15.8 40.8 28.4 64.2 37.2 11.4 4.2 24.2-0.2 30.2-10.8l16.4-28.6c21 3.8 42.4 3.8 63.4 0l16.4 28.6c6 10.6 18.8 15 30.2 10.8 23.6-8.8 45.2-21.4 64.2-37.2 9.2-7.6 11.6-21 5.6-31.4l-16.4-28.6c13.8-16 24.6-34.6 31.8-54.8h33c12 0 22.4-8.6 24.4-20.6 4-24 4.2-49.2 0-74.2-2-12-12.4-20.8-24.4-20.8h-33c-7.2-20.2-18-38.8-31.8-54.8l16.4-28.6c6-10.4 3.8-23.8-5.6-31.4-19-15.8-40.8-28.4-64.2-37.2-11.4-4.2-24.2 0.2-30.2 10.8l-16.4 28.6c-20.8-3.8-42.4-3.8-63.4 0zM1003.2 98c77-59.2 164.8 28.6 105.6 105.6-77 59.2-164.8-28.6-105.6-105.6z" />
<glyph unicode="&#xe90f;" glyph-name="ellipsis-v" horiz-adv-x="384" d="M192 592c79.6 0 144-64.4 144-144s-64.4-144-144-144-144 64.4-144 144 64.4 144 144 144zM48 800c0-79.6 64.4-144 144-144s144 64.4 144 144-64.4 144-144 144-144-64.4-144-144zM48 96c0-79.6 64.4-144 144-144s144 64.4 144 144-64.4 144-144 144-144-64.4-144-144z" />
<glyph unicode="&#xe910;" glyph-name="vmware" d="M368.64 857.6c-56.545 0-102.4-45.855-102.4-102.4v-20.48h399.36c73.523 0 133.12-59.597 133.12-133.12v-204.8c0-39.588-32.092-71.68-71.68-71.68h-266.24c-39.588 0-71.68 32.092-71.68 71.68v133.12h-81.92c-22.63 0-40.96-18.33-40.96-40.96v-184.32c0-56.545 45.855-102.4 102.4-102.4h450.56c56.545 0 102.4 45.855 102.4 102.4v450.56c0 56.545-45.855 102.4-102.4 102.4h-450.56zM204.8 693.76c-56.545 0-102.4-45.855-102.4-102.4v-450.56c0-56.545 45.855-102.4 102.4-102.4h450.56c56.545 0 102.4 45.855 102.4 102.4v20.48h-399.36c-73.523 0-133.12 59.597-133.12 133.12v204.8c0 39.588 32.092 71.68 71.68 71.68h266.24c39.588 0 71.68-32.092 71.68-71.68v-133.12h81.92c22.63 0 40.96 18.33 40.96 40.96v184.32c0 56.545-45.855 102.4-102.4 102.4h-450.56z" />
<glyph unicode="&#xe911;" glyph-name="minus" horiz-adv-x="896" d="M832 544h-768c-35.34 0-64-28.66-64-64v-64c0-35.34 28.66-64 64-64h768c35.34 0 64 28.66 64 64v64c0 35.34-28.66 64-64 64z" />
<glyph unicode="&#xe912;" glyph-name="minus-circle" d="M512 944c-274 0-496-222-496-496s222-496 496-496 496 222 496 496-222 496-496 496zM248 368c-13.2 0-24 10.8-24 24v112c0 13.2 10.8 24 24 24h528c13.2 0 24-10.8 24-24v-112c0-13.2-10.8-24-24-24h-528z" />
<glyph unicode="&#xe913;" glyph-name="minus-square" horiz-adv-x="896" d="M800 896h-704c-53 0-96-43-96-96v-704c0-53 43-96 96-96h704c53 0 96 43 96 96v704c0 53-43 96-96 96zM184 368c-13.2 0-24 10.8-24 24v112c0 13.2 10.8 24 24 24h528c13.2 0 24-10.8 24-24v-112c0-13.2-10.8-24-24-24h-528z" />
<glyph unicode="&#xe914;" glyph-name="plus-circle" d="M512 944c-274 0-496-222-496-496s222-496 496-496 496 222 496 496-222 496-496 496zM800 392c0-13.2-10.8-24-24-24h-184v-184c0-13.2-10.8-24-24-24h-112c-13.2 0-24 10.8-24 24v184h-184c-13.2 0-24 10.8-24 24v112c0 13.2 10.8 24 24 24h184v184c0 13.2 10.8 24 24 24h112c13.2 0 24-10.8 24-24v-184h184c13.2 0 24-10.8 24-24v-112z" />
<glyph unicode="&#xe915;" glyph-name="plus-square" horiz-adv-x="896" d="M800 896h-704c-53 0-96-43-96-96v-704c0-53 43-96 96-96h704c53 0 96 43 96 96v704c0 53-43 96-96 96zM736 392c0-13.2-10.8-24-24-24h-184v-184c0-13.2-10.8-24-24-24h-112c-13.2 0-24 10.8-24 24v184h-184c-13.2 0-24 10.8-24 24v112c0 13.2 10.8 24 24 24h184v184c0 13.2 10.8 24 24 24h112c13.2 0 24-10.8 24-24v-184h184c13.2 0 24-10.8 24-24v-112z" />
<glyph unicode="&#xe916;" glyph-name="bars" horiz-adv-x="896" d="M32 696h832c17.674 0 32 14.326 32 32v80c0 17.674-14.326 32-32 32h-832c-17.674 0-32-14.326-32-32v-80c0-17.674 14.326-32 32-32zM32 376h832c17.674 0 32 14.326 32 32v80c0 17.674-14.326 32-32 32h-832c-17.674 0-32-14.326-32-32v-80c0-17.674 14.326-32 32-32zM32 56h832c17.674 0 32 14.326 32 32v80c0 17.674-14.326 32-32 32h-832c-17.674 0-32-14.326-32-32v-80c0-17.674 14.326-32 32-32z" />
<glyph unicode="&#xe917;" glyph-name="redo-alt" d="M512.91 944c132.538-0.238 252.874-52.466 341.718-137.37l71.43 71.43c30.24 30.238 81.942 8.822 81.942-33.942v-268.118c0-26.51-21.49-48-48-48h-268.118c-42.764 0-64.18 51.702-33.942 81.942l83.5 83.5c-61.728 57.798-141.602 89.814-226.46 90.546-184.796 1.596-340.566-147.954-338.968-338.884 1.516-181.122 148.356-333.104 335.988-333.104 82.254 0 159.994 29.356 221.258 83.112 9.486 8.322 23.812 7.816 32.736-1.106l79.324-79.324c9.744-9.744 9.262-25.63-0.964-34.866-87.95-79.442-204.502-127.816-332.354-127.816-273.932 0-495.998 222.066-496 495.996-0.002 273.618 223.292 496.494 496.91 496.004z" />
<glyph unicode="&#xe918;" glyph-name="home" horiz-adv-x="1152" d="M560.74 663.48l-368.74-303.7v-327.78c0-17.673 14.327-32 32-32v0l224.12 0.58c17.604 0.091 31.84 14.383 31.84 32 0 0 0 0 0 0v0 191.42c0 17.673 14.327 32 32 32v0h128c17.673 0 32-14.327 32-32v0-191.28c0-0.030 0-0.065 0-0.1 0-17.673 14.327-32 32-32 0 0 0 0 0 0v0l224.040-0.62c17.673 0 32 14.327 32 32v0 328l-368.66 303.48c-4.145 3.363-9.485 5.399-15.3 5.399s-11.155-2.036-15.345-5.434l0.045 0.036zM1143.2 457.060l-167.2 137.82v277.020c0 13.255-10.745 24-24 24v0h-112c-13.255 0-24-10.745-24-24v0-145.22l-179.060 147.32c-16.448 13.613-37.759 21.872-61 21.872s-44.552-8.259-61.161-22.001l0.161 0.129-506.26-416.94c-5.337-4.434-8.71-11.073-8.71-18.499 0-5.833 2.081-11.181 5.542-15.34l-0.032 0.039 51-62c4.434-5.364 11.089-8.755 18.537-8.755 5.825 0 11.166 2.075 15.323 5.527l-0.039-0.032 470.44 387.48c4.145 3.363 9.485 5.399 15.3 5.399s11.155-2.036 15.345-5.434l-0.045 0.036 470.46-387.48c4.12-3.429 9.468-5.51 15.301-5.51 7.426 0 14.065 3.373 18.467 8.671l0.032 0.039 51 62c3.398 4.11 5.459 9.434 5.459 15.239 0 7.494-3.435 14.186-8.816 18.587l-0.043 0.034z" />
<glyph unicode="&#xe919;" glyph-name="laptop-house" horiz-adv-x="1280" d="M544 384h-128c-17.673 0-32 14.327-32 32v0 128c0 17.673 14.327 32 32 32v0h128c17.673 0 32-14.327 32-32v0-74.24c22.22 25.76 54 42.24 89.6 42.24h273.88l13.3 15.060c4.172 5.166 6.831 11.709 7.216 18.857l0.004 0.083c-0.485 8.326-4.023 15.742-9.5 21.22v0l-118.5 104.78v192c0 17.673-14.327 32-32 32v0h-64c-17.673 0-32-14.327-32-32v0-78.6l-177 156.76c-11 9.84-32.1 17.84-46.9 17.84s-35.86-8-46.94-17.84l-423.6-375c-5.511-5.441-9.074-12.843-9.556-21.072l-0.004-0.088c0.372-7.163 2.987-13.651 7.15-18.845l-0.050 0.065 37.58-42.62c5.485-5.534 12.947-9.102 21.237-9.556l0.083-0.004c7.11 0.366 13.558 2.928 18.751 7.014l-0.071-0.054 43.32 38.24v-328.24c0-35.346 28.654-64 64-64v0h352zM1258.66 64h-74.66v320c0 35.34-25.78 64-57.6 64h-460.8c-31.82 0-57.6-28.66-57.6-64v-320h-74.66c-11.786 0-21.34-9.554-21.34-21.34v0-21.32c0.169-47.015 38.197-85.091 85.176-85.34h597.624c47.003 0.249 85.031 38.325 85.2 85.324v21.336c0 11.786-9.554 21.34-21.34 21.34v0zM1088 64h-384v288h384z" />
<glyph unicode="&#xe91a;" glyph-name="download" d="M432 960h160c26.6 0 48-21.4 48-48v-336h175.4c35.6 0 53.4-43 28.2-68.2l-304.2-304.4c-15-15-39.6-15-54.6 0l-304.6 304.4c-25.2 25.2-7.4 68.2 28.2 68.2h175.6v336c0 26.6 21.4 48 48 48zM1024 208v-224c0-26.6-21.4-48-48-48h-928c-26.6 0-48 21.4-48 48v224c0 26.6 21.4 48 48 48h293.4l98-98c40.2-40.2 105-40.2 145.2 0l98 98h293.4c26.6 0 48-21.4 48-48zM776 32c0 22-18 40-40 40s-40-18-40-40 18-40 40-40 40 18 40 40zM904 32c0 22-18 40-40 40s-40-18-40-40 18-40 40-40 40 18 40 40z" />
<glyph unicode="&#xe91b;" glyph-name="save" horiz-adv-x="896" d="M867.882 700.118l-167.764 167.764c-17.373 17.373-41.372 28.118-67.882 28.118h-536.236c-53.020 0-96-42.98-96-96v-704c0-53.020 42.98-96 96-96h704c53.020 0 96 42.98 96 96v536.236c0 26.51-10.745 50.509-28.118 67.882v0zM448 128c-70.692 0-128 57.308-128 128s57.308 128 128 128 128-57.308 128-128c0-70.692-57.308-128-128-128zM640 737.040v-201.040c0-13.254-10.746-24-24-24h-464c-13.254 0-24 10.746-24 24v208c0 13.254 10.746 24 24 24h457.040c6.366 0 12.47-2.528 16.97-7.030l6.96-6.96c4.343-4.342 7.030-10.341 7.030-16.968 0-0.001 0-0.002 0-0.002v0z" />
<glyph unicode="&#xe91c;" glyph-name="eye-slash" horiz-adv-x="1280" d="M640 160c-151.7 0-274.5 117.42-285.8 266.22l-209.8 162.14c-27.58-34.6-52.96-71.18-73.44-111.18-4.387-8.495-6.959-18.542-6.959-29.19s2.572-20.695 7.129-29.553l-0.17 0.363c108.46-211.62 323.18-354.8 569.040-354.8 53.82 0 105.74 8 155.78 20.92l-103.78 80.3c-15.55-3.151-33.498-5.043-51.857-5.219l-0.143-0.001zM1267.64 43.8l-221.1 170.88c66.318 56.14 120.801 123.919 160.761 200.48l1.739 3.66c4.387 8.495 6.959 18.542 6.959 29.19s-2.572 20.695-7.129 29.553l0.17-0.363c-108.46 211.62-323.18 354.8-569.040 354.8-108.057-0.135-209.564-28.059-297.794-77.006l3.154 1.606-254.44 196.66c-5.365 4.206-12.212 6.745-19.652 6.745-10.241 0-19.358-4.81-25.215-12.295l-0.053-0.070-39.26-50.54c-4.2-5.363-6.736-12.205-6.736-19.639 0-10.236 4.806-19.35 12.286-25.208l0.070-0.053 1176.72-909.46c5.365-4.206 12.212-6.745 19.652-6.745 10.241 0 19.358 4.81 25.215 12.295l0.053 0.070 39.28 50.54c4.196 5.361 6.728 12.2 6.728 19.63 0 10.242-4.812 19.36-12.298 25.217l-0.070 0.053zM900.2 327.8l-78.6 60.76c6.321 17.675 10.107 38.068 10.399 59.306l0.001 0.134c0.010 0.742 0.016 1.618 0.016 2.496 0 104.669-84.851 189.52-189.52 189.52-18.929 0-37.21-2.775-54.458-7.941l1.342 0.345c11.598-15.572 18.581-35.176 18.62-56.411v-0.009c-0.328-7.253-1.432-14.098-3.233-20.655l0.153 0.655-147.22 113.78c48.981 41.15 112.714 66.167 182.289 66.22h0.011c0.047 0 0.104 0 0.16 0 158.97 0 287.84-128.87 287.84-287.84 0-0.056 0-0.112 0-0.168v0.008c0-43.26-10.58-83.58-27.8-120.22z" />
<glyph unicode="&#xe91d;" glyph-name="eye" horiz-adv-x="1152" d="M1145.040 477.2c-108.46 211.62-323.18 354.8-569.040 354.8s-460.64-143.28-569.040-354.82c-4.387-8.495-6.959-18.542-6.959-29.19s2.572-20.695 7.129-29.553l-0.17 0.363c108.46-211.62 323.18-354.8 569.040-354.8s460.64 143.28 569.040 354.82c4.387 8.495 6.959 18.542 6.959 29.19s-2.572 20.695-7.129 29.553l0.17-0.363zM576 160c-159.058 0-288 128.942-288 288s128.942 288 288 288c159.058 0 288-128.942 288-288v0c0-0.041 0-0.091 0-0.14 0-158.981-128.879-287.86-287.86-287.86-0.049 0-0.098 0-0.147 0h0.007zM576 640c-18.13-0.261-35.516-3.012-51.969-7.926l1.349 0.346c11.631-15.661 18.62-35.374 18.62-56.72 0-52.854-42.846-95.7-95.7-95.7-21.346 0-41.059 6.988-56.977 18.802l0.257-0.182c-4.247-15.047-6.689-32.328-6.689-50.179 0-105.796 85.764-191.56 191.56-191.56s191.56 85.764 191.56 191.56c0 105.796-85.764 191.56-191.56 191.56-0.159 0-0.317 0-0.476-0.001h0.025z" />
<glyph unicode="&#xe91e;" glyph-name="upload" d="M592 192h-160c-26.6 0-48 21.4-48 48v336h-175.4c-35.6 0-53.4 43-28.2 68.2l304.2 304.4c15 15 39.6 15 54.6 0l304.4-304.4c25.2-25.2 7.4-68.2-28.2-68.2h-175.4v-336c0-26.6-21.4-48-48-48zM1024 208v-224c0-26.6-21.4-48-48-48h-928c-26.6 0-48 21.4-48 48v224c0 26.6 21.4 48 48 48h272v-16c0-61.8 50.2-112 112-112h160c61.8 0 112 50.2 112 112v16h272c26.6 0 48-21.4 48-48zM776 32c0 22-18 40-40 40s-40-18-40-40 18-40 40-40 40 18 40 40zM904 32c0 22-18 40-40 40s-40-18-40-40 18-40 40-40 40 18 40 40z" />
<glyph unicode="&#xe91f;" glyph-name="clone" d="M928 960c53.020 0 96-42.98 96-96v-576c0-53.020-42.98-96-96-96h-576c-53.020 0-96 42.98-96 96v576c0 53.020 42.98 96 96 96h576zM352 128c-88.224 0-160 71.776-160 160v416h-96c-53.020 0-96-42.98-96-96v-576c0-53.020 42.98-96 96-96h576c53.020 0 96 42.98 96 96v96h-416z" />
<glyph unicode="&#xe920;" glyph-name="firewall" horiz-adv-x="926" d="M231.183 867.781l-231.183-92.103 0.009-146.338c0.007-84.994 0.449-153.781 1.058-164.099 14.456-245.498 200.269-463.216 448.994-526.086l12.771-3.229 14.396 3.629c247.507 62.363 433.51 282.388 447.487 529.342 0.588 10.399 1.042 80.531 1.048 162.567l0.016 144.28-230.14 91.58c-126.575 50.369-230.843 91.8-231.706 92.071-0.861 0.268-105.599-40.959-232.75-91.615zM462.89 655.412v-205.322h359.686l-0.701-6.008c-1.366-11.716-8.955-46.988-13.542-62.955-47.444-165.097-174.56-295.99-333.165-343.064l-12.278-3.645v415.673h-359.445l0.023 265.926 178.405 72.278c98.123 39.751 178.993 72.313 179.712 72.359 1.039 0.065 1.305-41.635 1.305-205.241z" />
<glyph unicode="&#xe921;" glyph-name="debian-repo" d="M473.261 541.295c2.633 2.054 5.020 4.135 7.149 6.157-5.934-1.454-11.975-1.486-18.057-0.93-7.297-0.1 1.383-3.76 10.909-5.227zM501.529 556.287c4.345 5.999 7.514 12.566 8.631 19.359-0.976-4.842-3.602-9.022-6.076-13.431-13.645-8.589-1.282 5.101-0.006 10.305-14.675-18.467-2.019-11.073-2.549-16.232zM515.988 593.913c0.882 13.144-2.587 8.99-3.754 3.973 1.36-0.707 2.436-9.264 3.754-3.973zM434.675 773.565c3.896-0.698 8.415-1.234 7.782-2.164 4.261 0.934 5.23 1.793-7.782 2.164zM442.266 771.058l0.191 0.339-2.752-0.569zM432.327 499.447c-10.505 4.92-20.121 12.343-28.029 21.433 4.196-6.141 8.725-12.114 14.578-16.804-9.901 3.356-23.132 23.998-26.992 24.838 17.072-30.565 69.26-53.603 96.588-42.171-12.643-0.468-28.707-0.258-42.917 4.991-5.466 2.814-12.711 8.373-12.779 10.204-0.271-0.711-0.73-1.421-0.449-2.491zM586.857 675.452c9.765-14.145 15.334-36.072 17.889-45.153-1.951 11.073-5.101 21.798-8.948 32.177 2.965-1.247-4.778 22.783 3.854 6.868-9.219 33.924-39.458 65.62-67.277 80.495 3.405-3.114 7.701-7.026 6.157-7.64-13.835 8.237-11.4 8.88-13.383 12.359-11.27 4.587-12.010-0.368-19.475-0.010-21.242 11.267-25.338 10.069-44.885 17.127l0.888-4.154c-14.074 4.687-16.397-1.78-31.608-0.016-0.927 0.724 4.874 2.617 9.646 3.311-13.606-1.796-12.97 2.681-26.282-0.494 3.282 2.303 6.751 3.825 10.253 5.782-11.096-0.675-26.491-6.457-21.737-1.198-18.099-8.076-50.244-19.411-68.282-36.324l-0.569 3.789c-8.266-9.923-36.043-29.635-38.256-42.485l-2.21-0.517c-4.303-7.281-7.084-15.538-10.495-23.029-5.624-9.584-8.244-3.689-7.446-5.191-11.064-22.434-16.558-41.283-21.307-56.743 3.382-5.055 0.081-30.442 1.36-50.761-5.556-100.342 70.423-197.764 153.47-220.259 12.172-4.354 30.277-4.186 45.673-4.635-18.167 5.194-20.515 2.752-38.211 8.922-12.766 6.012-15.563 12.876-24.605 20.722l3.579-6.325c-17.734 6.276-10.314 7.766-24.741 12.336l3.821 4.991c-5.747 0.436-15.224 9.688-17.815 14.808l-6.286-0.249c-7.556 9.323-11.581 16.038-11.287 21.242l-2.032-3.618c-2.303 3.951-27.793 34.958-14.569 27.742-2.458 2.245-5.724 3.657-9.264 10.088l2.694 3.078c-6.364 8.189-11.713 18.684-11.309 22.182 3.395-4.587 5.75-5.443 8.082-6.228-16.071 39.878-16.975 2.197-29.147 40.592l2.575 0.207c-1.974 2.972-3.172 6.202-4.761 9.371l1.121 11.17c-11.571 13.38-3.237 56.888-1.567 80.75 1.156 9.704 9.659 20.031 16.126 36.231l-3.938 0.678c7.53 13.134 42.998 52.754 59.424 50.715 7.956 9.994-1.58 0.036-3.137 2.555 17.476 18.086 22.974 12.779 34.767 16.032 12.721 7.549-10.918-2.946-4.887 2.878 21.992 5.617 15.586 12.769 44.274 15.622 3.027-1.722-7.023-2.662-9.545-4.894 18.322 8.964 57.98 6.926 83.742-4.975 29.89-13.968 63.472-55.26 64.796-94.111l1.505-0.407c-0.762-15.444 2.365-33.301-3.056-49.707l3.689 7.766c0.436-11.803-3.453-17.531-6.958-27.667l-6.309-3.153c-5.162-10.024 0.501-6.364-3.198-14.339-8.060-7.165-24.456-22.421-29.702-23.814-3.831 0.084 2.594 4.519 3.437 6.26-10.789-7.407-8.654-11.122-25.154-15.622l-0.485 1.072c-40.692-19.143-97.212 18.794-96.469 70.556-0.436-3.285-1.234-2.465-2.135-3.792-2.1 26.634 12.298 53.384 36.583 64.305 23.752 11.758 51.6 6.932 68.614-8.922-9.345 12.243-27.948 25.219-49.995 24.004-21.598-0.342-41.8-14.065-48.541-28.963-11.064-6.964-12.346-26.853-17.169-30.491-6.486-47.672 12.201-68.269 43.812-92.496 2.549-1.719 2.852-2.688 2.633-3.569 0.016 0.019 0.016 0.045 0.036 0.061 37.294-13.932 75.821-10.553 108.088 15.318 8.208 6.393 17.179 17.269 19.769 17.421-3.902-5.869 0.665-2.823-2.332-8.005 8.179 13.192-3.553 5.369 8.457 22.783l4.435-6.108c-1.647 10.951 13.599 24.25 12.052 41.567 3.498 5.298 3.902-5.698 0.191-17.883 5.149 13.519 1.357 15.689 2.681 26.844 1.431-3.75 3.308-7.733 4.27-11.69-3.356 13.063 3.443 21.998 5.126 29.589-1.657 0.737-5.178-5.776-5.982 9.655 0.116 6.703 1.864 3.515 2.539 5.162-1.315 0.756-4.768 5.892-6.868 15.748 1.525 2.316 4.070-6.002 6.141-6.344-1.331 7.837-3.628 13.809-3.721 19.821-6.054 12.65-2.142-1.686-7.052 5.43-6.451 20.099 5.336 4.668 6.134 13.796zM432.773 501.937c0.045 0.116 0.084 0.236 0.113 0.355-0.084-0.090-0.116-0.213-0.113-0.355zM381.663 531.385c4.797-6.515 8.602-13.574 14.727-18.668-4.406 8.602-7.682 12.156-13.703 23.785l-1.024-5.117zM394.026 536.95c-2.539 2.807-4.041 6.186-5.724 9.552 1.609-5.918 4.904-11.002 7.969-16.174l-2.245 6.622zM580.9 537.283c7.191 13.519 11.839 28.3 13.79 43.282l-1.072-2.688c-1.964-13.968-6.209-27.787-12.718-40.595zM453.485 779.247c-6.822-0.572-13.616-0.914-20.322-1.78l2.952-0.404c4.936 1.809 12.133 0.992 17.369 2.184zM264.873 677.264c5.32 11.988-2.080 3.311-2.006 7.672 1.137-10.527-7.921-14.614 2.006-7.672zM254.775 651.509c-6.322-8.079-2.907-9.801-3.576-15.295 2.287 7.019 2.704 11.235 3.576 15.295zM684.915 157.539c0 12.543-9.594 19.181-26.566 19.181-8.118 0-12.789-0.491-15.987-0.985v-38.615h12.301c19.672 0 30.252 8.118 30.252 20.419zM357.288 175.244c-8.363 0-13.774-0.737-16.972-1.473v-108.469c3.198-0.737 8.363-0.737 13.037-0.737 33.94-0.246 56.074 18.445 56.074 58.045 0.249 34.435-19.921 52.634-52.14 52.634zM655.154 110.312h-12.792v-46.732c3.692-0.491 8.118-0.491 14.51-0.491 16.972 0 31.973 6.393 31.973 23.859 0 16.726-15.001 23.365-33.692 23.365zM874.842 732.104l-189.475 216.073c-6.59 7.514-16.096 11.823-26.091 11.823h-478.572c-22.176 0-40.156-17.98-40.156-40.156v-943.689c0-22.179 17.98-40.156 40.156-40.156h662.584c22.179 0 40.159 17.98 40.159 40.159v733.065c0.003 8.418-3.056 16.549-8.605 22.88zM421.728 56.693c-17.463-14.51-44.029-21.397-76.493-21.397-19.433 0-33.204 1.231-42.552 2.461v162.822c13.774 2.216 31.728 3.443 50.67 3.443 31.482 0 51.894-5.659 67.884-17.708 17.217-12.789 28.039-33.204 28.039-62.473-0.003-31.728-11.561-53.619-27.548-67.148zM579.637 37.017h-105.759v165.774h102.319v-30.746h-64.686v-34.435h60.997v-30.497h-60.997v-39.354h68.13v-30.743zM710.986 50.297c-12.052-9.591-32.222-15.005-65.18-15.005-18.448 0-32.222 1.231-40.582 2.461v162.822c9.839 1.967 29.761 3.443 48.454 3.443 22.874 0 36.893-2.216 48.945-9.348 11.558-6.147 19.921-17.463 19.921-32.467 0-14.756-8.609-28.53-27.299-35.417v-0.491c18.936-5.168 32.955-19.433 32.955-40.831 0-14.998-6.887-26.805-17.214-35.168zM180.705 278.176v0 641.665h465.156v-205.449c0-11.083 8.983-20.079 20.079-20.079h177.352l0.019-416.137h-662.607z" />
<glyph unicode="&#xe922;" glyph-name="proxy" d="M129.8 956.2c-28.8-9.2-47.8-32.2-51.8-62.8-2.4-18.2-2.4-115.8-0.2-134.2 2.2-16.4 11-35.4 21-45l7-6.8-8-8.8c-10.6-11.6-17.8-27.6-20-44.2-2.2-17.6-2.2-115.6 0-133.2 2.2-16.4 11-35.4 21-45l7-6.8-8-8.8c-10.6-11.6-17.8-27.6-20-44.2-2.2-18-2.2-115.8 0.2-133.8 3-23.6 14.6-42.2 33.6-54.2 19.8-12.6 15.4-12.4 187.8-12.4h156.6v-101.8l-5.8-3c-7.8-4.2-22.8-19-29-29l-5.2-8.2h-156.6c-175.6 0-163.4 1-176.4-14.8-5.8-7.4-6-8-6-30.2s0.2-22.8 6-30.2c13-15.8 0.6-14.8 178.4-14.8 156 0 158.4 0 159.6-4 2.4-7.4 24.2-27 37.2-33.4 28.8-14 56.8-14 85.6 0 13 6.4 34.8 26 37.2 33.4 1.2 4 3.6 4 170.6 4 190.2 0 176.4-1 189.4 14.8 5.8 7.4 6 8 6 30.2s-0.2 22.8-6 30.2c-11.8 14.4-13.6 14.8-71.6 14.8h-51.6l-4.8-5c-6-5.8-6.4-12.8-1.2-19.2 3.8-4.8 4.2-4.8 54.6-5.8l50.6-1v-28l-161.8-0.6c-147-0.4-161.6-0.2-160.4 2.8 0.6 1.6 1.2 8.4 1.2 15v11.8h162.2l4.8 5c6.4 6.2 6.4 13.8 0 20l-4.8 5h-172.2l-5.2 8.2c-6.2 10-21.2 24.8-29 29l-5.8 3v101.8l343 1 11 4.4c26.2 10.6 42.8 34 46.4 65.6 3.4 28.8-1.4 43-14.4 43-4 0-13-5.4-14.2-8.6 0-0.2-0.8-11-1.6-23.8-1.2-21.6-1.8-24.2-7.4-32-3.6-5.2-10-10.6-16.6-14l-10.6-5.6h-739.2l-10.6 5.6c-6.8 3.4-13 8.8-16.8 14.2l-6 8.6v151.2l6 8.6c3.8 5.4 10 10.8 16.8 14.2l10.6 5.6h347.8l4.8 5c6.4 6.2 6.4 13.8 0 20l-4.8 5h-347.8l-10.6 5.6c-6.8 3.4-13 8.8-16.8 14.2l-6 8.6v151.2l6 8.6c3.8 5.4 10 10.8 16.8 14.2l10.6 5.6h739.2l10.6-5.6c6.8-3.4 13-8.8 16.8-14.2l6-8.6v-151.2l-6-8.6c-3.8-5.4-10-10.8-16.8-14.2l-10.6-5.6h-331.8l-4.8-5c-6.4-6.2-6.4-13.8 0-20l4.8-5h331.8l10.6-5.6c6.6-3.4 13-8.8 16.6-14 5.6-7.8 6.2-10.4 7.4-32 0.8-12.8 1.6-23.6 1.6-23.8 1.2-3.2 10.2-8.6 14.2-8.6 13 0 17.8 14.2 14.4 43-2.2 20-10.2 38.2-21.2 48.8l-7 6.8 8 8.8c10.6 11.6 17.8 27.6 20 44.2 0.8 7.4 1.6 37.2 1.6 66.4s-0.8 59-1.6 66.4c-2.2 16.6-9.4 32.6-20 44.2l-8 8.8 7 6.8c10.6 10.2 18.8 28.6 21.2 47 1 8.8 1.6 42.6 1.2 76.8-0.8 56.6-1.2 61.8-5.2 71.8-9.4 23.8-25.4 39.2-47.8 46.2-12.8 4-17.6 4-309 4h-295.8l-4.8-5c-2.8-2.6-5-7.2-5-10s2.2-7.4 5-10l4.8-5h591.8l10.6-5.6c6.8-3.4 13-8.8 16.8-14.2l6-8.6v-151.2l-6-8.6c-3.8-5.4-10-10.8-16.8-14.2l-10.6-5.6h-739.2l-10.6 5.6c-6.8 3.4-13 8.8-16.8 14.2l-6 8.6v151.2l6 8.6c3.8 5.4 10 10.8 16.8 14.2l10.6 5.6h43c42.8 0 42.8 0 47.6 5 2.8 2.6 5 7.2 5 10s-2.2 7.4-5 10l-4.8 5-43.6-0.2c-36.2 0-45.6-0.6-54.8-3.6zM516 170.6v-45.6h-30v91h30v-45.4zM527.4 90c13.2-5.6 28.6-21.6 33.8-35 5-13.4 5-34.6 0-48-5.2-13.2-20.6-29.4-33.8-35.2-14.6-6.6-38.2-6.6-52.8 0-13.2 5.8-28.6 22-33.8 35.2-5 13.4-5 34.6 0 48 4.2 10.8 18.6 27.6 28.2 32.6 18.2 9.4 40 10.4 58.4 2.4zM406 32.2c0-6.6 0.6-13.4 1.2-15 1.2-3-12.4-3.2-149.4-2.8l-150.8 0.6-0.6 11.8c-0.4 6.4-0.2 13 0.4 14.4 0.8 2.4 26.2 2.8 150.2 2.8h149v-11.8zM623.6 888.4c-20.4-7.4-36.8-24.4-41.8-43.4-1.2-4.4-1.8-14.8-1.4-23 1.4-24.6 14-43 37.4-54.2 12.6-6.2 39-6.4 52.2-0.4 12.8 6 24.2 16.4 31 28.8 5.6 10 6 12.4 6 30.8 0 18.6-0.4 20.8-6.2 31-15.6 27.6-49 40.6-77.2 30.4zM663.6 855.4c10.6-7 15-16.8 14-31.2-1-14.2-6.4-22.2-18.8-28.2-16.6-8.2-38-1-45.8 15-4.6 10.2-3.4 28 2.6 36.4 10.4 14.8 32.4 18.4 48 8zM793.6 888.4c-20.4-7.4-36.8-24.4-41.8-43.4-1.2-4.4-1.8-14.8-1.4-23 1.4-24.6 14-43 37.4-54.2 12.6-6.2 39-6.4 52.2-0.4 12.8 6 24.2 16.4 31 28.8 5.6 10 6 12.4 6 30.8 0 18.6-0.4 20.8-6.2 31-15.6 27.6-49 40.6-77.2 30.4zM833.6 855.4c10.6-7 15-16.8 14-31.2-1-14.2-6.4-22.2-18.8-28.2-16.6-8.2-38-1-45.8 15-4.6 10.2-3.4 28 2.6 36.4 10.4 14.8 32.4 18.4 48 8zM152.4 872c-2.8-2.8-4.4-6.6-4.4-11s1.6-8.2 4.4-11c4.2-3.8 6.8-4 51.6-4s47.4 0.2 51.6 4c6 5.6 6 16.4 0 22-4.2 3.8-6.8 4-51.6 4s-47.4-0.2-51.6-4zM306.4 872c-2.8-2.8-4.4-6.6-4.4-11s1.6-8.2 4.4-11c4.2-3.8 6.8-4 53.6-4s49.4 0.2 53.6 4c2.8 2.8 4.4 6.6 4.4 11s-1.6 8.2-4.4 11c-4.2 3.8-6.8 4-53.6 4s-49.4-0.2-53.6-4zM152.4 802c-2.8-2.8-4.4-6.6-4.4-11s1.6-8.2 4.4-11c4.2-3.8 6.8-4 51.6-4s47.4 0.2 51.6 4c6 5.6 6 16.4 0 22-4.2 3.8-6.8 4-51.6 4s-47.4-0.2-51.6-4zM306.4 802c-2.8-2.8-4.4-6.6-4.4-11s1.6-8.2 4.4-11c4.2-3.8 6.8-4 53.6-4s49.4 0.2 53.6 4c2.8 2.8 4.4 6.6 4.4 11s-1.6 8.2-4.4 11c-4.2 3.8-6.8 4-53.6 4s-49.4-0.2-53.6-4zM623.6 650.4c-20.4-7.4-36.8-24.4-41.8-43.4-1.2-4.4-1.8-14.8-1.4-23 1.4-24.6 14-43 37.4-54.2 12.6-6.2 39-6.4 52.2-0.4 12.8 6 24.2 16.4 31 28.8 5.6 10 6 12.4 6 30.8 0 18.6-0.4 20.8-6.2 31-15.6 27.6-49 40.6-77.2 30.4zM663.6 617.4c10.6-7 15-16.8 14-31.2-1-14.2-6.4-22.2-18.8-28.2-16.6-8.2-38-1-45.8 15-4.6 10.2-3.4 28 2.6 36.4 10.4 14.8 32.4 18.4 48 8zM793.6 650.4c-20.4-7.4-36.8-24.4-41.8-43.4-1.2-4.4-1.8-14.8-1.4-23 1.4-24.6 14-43 37.4-54.2 12.6-6.2 39-6.4 52.2-0.4 12.8 6 24.2 16.4 31 28.8 5.6 10 6 12.4 6 30.8 0 18.6-0.4 20.8-6.2 31-15.6 27.6-49 40.6-77.2 30.4zM833.6 617.4c10.6-7 15-16.8 14-31.2-1-14.2-6.4-22.2-18.8-28.2-16.6-8.2-38-1-45.8 15-4.6 10.2-3.4 28 2.6 36.4 10.4 14.8 32.4 18.4 48 8zM152.4 634c-2.8-2.8-4.4-6.6-4.4-11s1.6-8.2 4.4-11c4.2-3.8 6.8-4 51.6-4s47.4 0.2 51.6 4c6 5.6 6 16.4 0 22-4.2 3.8-6.8 4-51.6 4s-47.4-0.2-51.6-4zM306.4 634c-2.8-2.8-4.4-6.6-4.4-11s1.6-8.2 4.4-11c4.2-3.8 6.8-4 53.6-4s49.4 0.2 53.6 4c2.8 2.8 4.4 6.6 4.4 11s-1.6 8.2-4.4 11c-4.2 3.8-6.8 4-53.6 4s-49.4-0.2-53.6-4zM152.4 564c-2.8-2.8-4.4-6.6-4.4-11s1.6-8.2 4.4-11c4.2-3.8 6.8-4 51.6-4s47.4 0.2 51.6 4c6 5.6 6 16.4 0 22-4.2 3.8-6.8 4-51.6 4s-47.4-0.2-51.6-4zM306.4 564c-2.8-2.8-4.4-6.6-4.4-11s1.6-8.2 4.4-11c4.2-3.8 6.8-4 53.6-4s49.4 0.2 53.6 4c2.8 2.8 4.4 6.6 4.4 11s-1.6 8.2-4.4 11c-4.2 3.8-6.8 4-53.6 4s-49.4-0.2-53.6-4zM623.6 412.4c-20.4-7.4-36.8-24.4-41.8-43.4-1.2-4.4-1.8-14.8-1.4-23 1.4-24.6 14-43 37.4-54.2 12.6-6.2 39-6.4 52.2-0.4 12.8 6 24.2 16.4 31 28.8 5.6 10 6 12.4 6 30.8 0 18.6-0.4 20.8-6.2 31-15.6 27.6-49 40.6-77.2 30.4zM663.6 379.4c10.6-7 15-16.8 14-31.2-1-14.2-6.4-22.2-18.8-28.2-16.6-8.2-38-1-45.8 15-4.6 10.2-3.4 28 2.6 36.4 10.4 14.8 32.4 18.4 48 8zM793.6 412.4c-20.4-7.4-36.8-24.4-41.8-43.4-1.2-4.4-1.8-14.8-1.4-23 1.4-24.6 14-43 37.4-54.2 12.6-6.2 39-6.4 52.2-0.4 12.8 6 24.2 16.4 31 28.8 5.6 10 6 12.4 6 30.8 0 18.6-0.4 20.8-6.2 31-15.6 27.6-49 40.6-77.2 30.4zM833.6 379.4c10.6-7 15-16.8 14-31.2-1-14.2-6.4-22.2-18.8-28.2-16.6-8.2-38-1-45.8 15-4.6 10.2-3.4 28 2.6 36.4 10.4 14.8 32.4 18.4 48 8zM152.4 396c-2.8-2.8-4.4-6.6-4.4-11s1.6-8.2 4.4-11c4.2-3.8 6.8-4 51.6-4s47.4 0.2 51.6 4c6 5.6 6 16.4 0 22-4.2 3.8-6.8 4-51.6 4s-47.4-0.2-51.6-4zM306.4 396c-2.8-2.8-4.4-6.6-4.4-11s1.6-8.2 4.4-11c4.2-3.8 6.8-4 53.6-4s49.4 0.2 53.6 4c2.8 2.8 4.4 6.6 4.4 11s-1.6 8.2-4.4 11c-4.2 3.8-6.8 4-53.6 4s-49.4-0.2-53.6-4zM152.4 326c-2.8-2.8-4.4-6.6-4.4-11s1.6-8.2 4.4-11c4.2-3.8 6.8-4 51.6-4s47.4 0.2 51.6 4c6 5.6 6 16.4 0 22-4.2 3.8-6.8 4-51.6 4s-47.4-0.2-51.6-4zM306.4 326c-2.8-2.8-4.4-6.6-4.4-11s1.6-8.2 4.4-11c4.2-3.8 6.8-4 53.6-4s49.4 0.2 53.6 4c2.8 2.8 4.4 6.6 4.4 11s-1.6 8.2-4.4 11c-4.2 3.8-6.8 4-53.6 4s-49.4-0.2-53.6-4z" />
</font>
</defs>
</svg>
